<svg xmlns="http://www.w3.org/2000/svg" viewBox="0 0 64 64" fill="none">
  <!-- Background -->
  <rect width="64" height="64" rx="14" fill="#18181b"/>
  <!-- Eye almond -->
  <path d="M10 32 C18 20, 46 20, 54 32 C46 44, 18 44, 10 32Z" fill="#22c55e" opacity="0.15"/>
  <path d="M10 32 C18 20, 46 20, 54 32 C46 44, 18 44, 10 32Z" fill="none" stroke="#22c55e" stroke-width="2.5"/>
  <!-- Iris outer ring -->
  <circle cx="32" cy="32" r="9" stroke="#22c55e" stroke-width="2"/>
  <!-- Iris fill -->
  <circle cx="32" cy="32" r="7" fill="#22c55e" opacity="0.2"/>
  <!-- Pupil -->
  <circle cx="32" cy="32" r="4" fill="#22c55e"/>
  <!-- Lock shackle -->
  <path d="M29 30V27.5a3 3 0 016 0V30" stroke="#18181b" stroke-width="2" stroke-linecap="round" stroke-linejoin="round"/>
  <!-- Lock body -->
  <rect x="27" y="29.5" width="10" height="8" rx="2" fill="#18181b"/>
  <!-- Keyhole -->
  <circle cx="32" cy="33" r="1.5" fill="#22c55e"/>
  <rect x="31.2" y="33.5" width="1.6" height="2.5" rx="0.8" fill="#22c55e"/>
</svg>
